<svg xmlns="http://www.w3.org/2000/svg" viewBox="-1.5 -1.5 123 123" width="246" height="246"><path d="M0 0h120v120H0" fill="#fff"/><path d="M0 60L60 0l60 60-60 60zM0 0l30 30h60m30-30L90 30v60m30 30L90 90H30M0 120l30-30V30" fill="none" stroke="#000"/><path d="M-1.5-1.5h123v123h-123M.5.5v119h119V.5M5 23h11l-1 2H4m1 66h11l-1 2H4m11-40h11l-1 2H14m1 2h11l-1 2H14M25 3h11l-1 2H24m1 2h11l-1 2H24m1 2h11l-1 2H24m1 2h11l-1 2H24m1 98h11l-1 2H24m11-84h11l-1 2H34m21-14h11l-1 2H54m1 2h11l-1 2H54m1 46h11l-1 2H54m1 6h11l-1 2H54m1 10h11l-1 2H54m1 2h11l-1 2H54m1 6h11l-1 2H54m21-74h11l-1 2H74m1 2h11l-1 2H74m1 6h11l-1 2H74m11-32h11l-1 2H84m1 86h11l-1 2H84m1 10h11l-1 2H84m11-60h11l-1 2H94m11-28h11l-1 2h-11m1 2h11l-1 2h-11m1 46h11l-1 2h-11m1 10h11l-1 2h-11"/><path d="M10 26l2 2-4 4 4 4-2 2-2-2 4-4-4-4m2 54l2 2-4 4 2 2 2-2-4-4m2 10l2 2-2 2-2-2m12-36l2 2-4 4 2 2 2-2-4-4m12 40l2 2-4 4 4 4-2 2-2-2 4-4-4-4m12-68l2 2-4 4 4 4-2 2-2-2 4-4-4-4m22-26l2 2-4 4 2 2 2-2-4-4m2 62l2 2-2 2-2-2m2 6l2 2-2 2-2-2m2 14l2 2-2 2-2-2m22-62l2 2-2 2-2-2M90 2l2 2-4 4 4 4-2 2-2-2 4-4-4-4m2 102l2 2-4 4 2 2 2-2-4-4m12-56l2 2-2 2-2-2m2 6l2 2-4 4 2 2 2-2-4-4m12-40l2 2-4 4 2 2 2-2-4-4m2 62l2 2-4 4 2 2 2-2-4-4" fill="#d13"/></svg>