<svg xmlns="http://www.w3.org/2000/svg" viewBox="-1.5 -1.5 123 123" width="246" height="246"><path d="M0 0h120v120H0" fill="#fff"/><path d="M0 60L60 0l60 60-60 60zM0 0l30 30h60m30-30L90 30v60m30 30L90 90H30M0 120l30-30V30" fill="none" stroke="#000"/><path d="M-1.5-1.5h123v123h-123M.5.5v119h119V.5M6 26l2 2-4 4 4 4-2 2-2-2 4-4-4-4m2 58l2 2-2 2-2-2m6-66l2 2-2 2-2-2m2 58l2 2-2 2-2-2m2 6l2 2-4 4 2 2 2-2-4-4m6-66l2 2-4 4 4 4-2 2-2-2 4-4-4-4m2 58l2 2-2 2-2-2m4-32l2 2-2 2-2-2m2 6l2 2-2 2-2-2m6-14l2 2-2 2-2-2m2 6l2 2-2 2-2-2m6-6l2 2-2 2-2-2m2 6l2 2-2 2-2-2m4-56l2 2-2 2-2-2m2 98l2 2-4 4 2 2 2-2-4-4M30 2l2 2-4 4 2 2 2-2-4-4m2 10l2 2-2 2-2-2m2 86l2 2-4 4 2 2 2-2-4-4m6-94l2 2-2 2-2-2m2 98l2 2-4 4 2 2 2-2-4-4m4-80l2 2-2 2-2-2m2 6l2 2-2 2-2-2m6-6l2 2-2 2-2-2m2 6l2 2-2 2-2-2m6-14l2 2-2 2-2-2m2 6l2 2-2 2-2-2m14-26l2 2-4 4 4 4-2 2-2-2 4-4-4-4m2 62l2 2-4 4 2 2 2-2-4-4m2 10l2 2-2 2-2-2m2 6l2 2-4 4 2 2 2-2-4-4m6-90l2 2-2 2-2-2m2 58l2 2-4 4 2 2 2-2-4-4m2 22l2 2-2 2-2-2m6-82l2 2-4 4 4 4-2 2-2-2 4-4-4-4m2 62l2 2-4 4 2 2 2-2-4-4m2 10l2 2-2 2-2-2m2 6l2 2-4 4 2 2 2-2-4-4m14-66l2 2-4 4 2 2 2-2-4-4m6-6l2 2-2 2-2-2m2 10l2 2-2 2-2-2m6-10l2 2-4 4 2 2 2-2-4-4m4-36l2 2-4 4 4 4-2 2-2-2 4-4-4-4m2 110l2 2-2 2-2-2m6-102l2 2-2 2-2-2m2 86l2 2-4 4 4 4-2 2-2-2 4-4-4-4M94 2l2 2-4 4 4 4-2 2-2-2 4-4-4-4m2 110l2 2-2 2-2-2m4-56l2 2-4 4 2 2 2-2-4-4m6-10l2 2-4 4 2 2 2-2-4-4m6 6l2 2-4 4 2 2 2-2-4-4m4-40l2 2-2 2-2-2m2 6l2 2-4 4 2 2 2-2-4-4m2 50l2 2-4 4 2 2 2-2-4-4m6-58l2 2-2 2-2-2m2 62l2 2-4 4 2 2 2-2-4-4m6-70l2 2-2 2-2-2m2 6l2 2-4 4 2 2 2-2-4-4m2 50l2 2-4 4 2 2 2-2-4-4"/></svg>