<svg xmlns="http://www.w3.org/2000/svg" viewBox="0 0 171 87"><defs><path id="0" d="M5 3h11l-1 2H4m1 2h11l-1 2H4m1 2h11l-1 2H4m1 2h11l-1 2H4"/><g id="1"><path d="M5 7h11l-1 2H4m1 2h11l-1 2H4m1 2h11l-1 2H4"/><path d="M10 2l2 2-2 2-2-2" fill="#dc143c"/></g><g id="2"><path d="M5 3h11l-1 2H4m1 6h11l-1 2H4m1 2h11l-1 2H4"/><path d="M10 6l2 2-2 2-2-2" fill="#dc143c"/></g><g id="3"><path d="M5 11h11l-1 2H4m1 2h11l-1 2H4"/><path d="M10 2l2 2-4 4 2 2 2-2-4-4" fill="#dc143c"/></g><g id="4"><path d="M5 3h11l-1 2H4m1 2h11l-1 2H4m1 6h11l-1 2H4"/><path d="M10 10l2 2-2 2-2-2" fill="#dc143c"/></g><g id="5"><path d="M5 7h11l-1 2H4m1 6h11l-1 2H4"/><path d="M10 2l2 2-2 2-2-2m2 6l2 2-2 2-2-2" fill="#dc143c"/></g><g id="6"><path d="M5 3h11l-1 2H4m1 10h11l-1 2H4"/><path d="M10 6l2 2-4 4 2 2 2-2-4-4" fill="#dc143c"/></g><g id="7"><path d="M5 15h11l-1 2H4"/><path d="M10 2l2 2-4 4 4 4-2 2-2-2 4-4-4-4" fill="#dc143c"/></g><g id="8"><path d="M5 3h11l-1 2H4m1 2h11l-1 2H4m1 2h11l-1 2H4"/><path d="M10 14l2 2-2 2-2-2" fill="#dc143c"/></g><g id="9"><path d="M5 7h11l-1 2H4m1 2h11l-1 2H4"/><path d="M10 2l2 2-2 2-2-2m2 10l2 2-2 2-2-2" fill="#dc143c"/></g><g id="10"><path d="M5 3h11l-1 2H4m1 6h11l-1 2H4"/><path d="M10 6l2 2-2 2-2-2m2 6l2 2-2 2-2-2" fill="#dc143c"/></g><g id="11"><path d="M5 11h11l-1 2H4"/><path d="M10 2l2 2-4 4 2 2 2-2-4-4m2 10l2 2-2 2-2-2" fill="#dc143c"/></g><g id="12"><path d="M5 3h11l-1 2H4m1 2h11l-1 2H4"/><path d="M10 10l2 2-4 4 2 2 2-2-4-4" fill="#dc143c"/></g><g id="13"><path d="M5 7h11l-1 2H4"/><path d="M10 2l2 2-2 2-2-2m2 6l2 2-4 4 2 2 2-2-4-4" fill="#dc143c"/></g><g id="14"><path d="M5 3h11l-1 2H4"/><path d="M10 6l2 2-4 4 4 4-2 2-2-2 4-4-4-4" fill="#dc143c"/></g><path id="15" d="M10 2l2 2-4 4 4 4-4 4 2 2 2-2-4-4 4-4-4-4" fill="#dc143c"/></defs><path d="M0 0h171v87H0M2 2v20h20V2m1 0v20h20V2m1 0v20h20V2m1 0v20h20V2m1 0v20h20V2m1 0v20h20V2m1 0v20h20V2m1 0v20h20V2M2 23v20h41V23m1 0v20h41V23m1 0v20h41V23m1 0v20h41V23M2 44v20h83V44m1 0v20h83V44M2 65v20h167V65"/><use x="149" y="2"/><use x="128" y="2"/><use x="107" y="2"/><use x="86" y="2"/><use x="65" y="2"/><use x="44" y="2"/><use x="23" y="2"/><use x="2" y="2"/><use x="138.5" y="23"/><use x="96.5" y="23"/><use x="54.5" y="23"/><use x="12.5" y="23"/><use x="117.5" y="44"/><use x="33.5" y="44"/><use x="75.5" y="65"/><use x="149" y="65"/><script><![CDATA[const m=parseInt(location.hash.slice(1),16);const f=[(m>>12)&15,(m>>8)&15,(m>>4)&15,m&15,((m>>12)&1)|((m>>7)&2)|((m>>2)&4)|((m<<3)&8),((m>>13)&1)|((m>>8)&2)|((m>>3)&4)|((m<<2)&8),((m>>14)&1)|((m>>9)&2)|((m>>4)&4)|((m<<1)&8),((m>>15)&1)|((m>>10)&2)|((m>>5)&4)|(m&8)];for(let i=0;i<7;i++)f[i+8]=f[i*2]^f[i*2+1];f[15]=f[0]^f[14];const u=document.getElementsByTagName("use");for(let i=0;i<16;i++)u[i].setAttribute("href","#"+f[i]);]]></script></svg>
