<svg xmlns="http://www.w3.org/2000/svg" viewBox="-1.5 -1.5 163 83"><path d="M0 0h160v80H0" fill="#fff"/><path d="M0 20h160M0 40h160M0 60h160M20 0v20M40 0v40M60 0v20M80 0v60m20-60v20m20-20v40m20-40v20" fill="none" stroke="#000"/><path d="M-1.5-1.5h163v83h-163M0 0v80h160V0m-55 11h11l-1 2h-11M85 3h11l-1 2H84m1 2h11l-1 2H84m1 2h11l-1 2H84m-19 2h11l-1 2H64m-19-2h11l-1 2H44m-19-6h11l-1 2H24m1 2h11l-1 2H24m111 6h11l-1 2h-11m1 2h11l-1 2h-11m1 2h11l-1 2h-11m1 2h11l-1 2h-11m-39-6h11l-1 2H94m1 2h11l-1 2H94M55 23h11l-1 2H54m1 2h11l-1 2H54m1 2h11l-1 2H54m1 2h11l-1 2H54M15 23h11l-1 2H14m1 2h11l-1 2H14m101 22h11l-1 2h-11m1 2h11l-1 2h-11M35 43h11l-1 2H34m1 2h11l-1 2H34"/><path d="M150 2l2 2-4 4 4 4-4 4 2 2 2-2-4-4 4-4-4-4m-18-2l2 2-4 4 4 4-4 4 2 2 2-2-4-4 4-4-4-4m-18-2l2 2-4 4 2 2 2-2-4-4m2 10l2 2-2 2-2-2m-18-2l2 2-2 2-2-2M70 2l2 2-4 4 4 4-2 2-2-2 4-4-4-4M50 2l2 2-4 4 4 4-2 2-2-2 4-4-4-4M30 2l2 2-4 4 2 2 2-2-4-4M10 2l2 2-4 4 4 4-4 4 2 2 2-2-4-4 4-4-4-4m92 18l2 2-4 4 2 2 2-2-4-4m-78 6l2 2-4 4 2 2 2-2-4-4m102 10l2 2-4 4 2 2 2-2-4-4m-78 6l2 2-4 4 2 2 2-2-4-4m42 10l2 2-4 4 4 4-4 4 2 2 2-2-4-4 4-4-4-4" fill="#d13"/></svg>