<svg xmlns="http://www.w3.org/2000/svg" viewBox="-1.5 -1.5 163 83" width="326" height="166"><path d="M0 0h160v80H0" fill="#fff"/><path d="M0 20h160M0 40h160M0 60h160M20 0v20M40 0v40M60 0v20M80 0v60m20-60v20m20-20v40m20-40v20" fill="none" stroke="#000"/><path d="M-1.5-1.5h163v83h-163m2-81v79h159V.5M145 3h11l-1 2h-11m1 10h11l-1 2h-11M105 3h11l-1 2h-11m1 10h11l-1 2h-11M85 7h11l-1 2H84m1 2h11l-1 2H84M65 3h11l-1 2H64m1 6h11l-1 2H64m-19 2h11l-1 2H44m-19-2h11l-1 2H24M5 3h11l-1 2H4m1 6h11l-1 2H4m131 14h11l-1 2h-11m1 2h11l-1 2h-11m-79-6h11l-1 2H54m-39-2h11l-1 2H14m101 14h11l-1 2h-11m1 10h11l-1 2h-11M35 43h11l-1 2H34m1 2h11l-1 2H34m1 2h11l-1 2H34m1 2h11l-1 2H34m41 6h11l-1 2H74m1 10h11l-1 2H74"/><path d="M150 6l2 2-4 4 2 2 2-2-4-4m-18-6l2 2-4 4 4 4-4 4 2 2 2-2-4-4 4-4-4-4m-18 2l2 2-4 4 2 2 2-2-4-4M90 2l2 2-2 2-2-2m2 10l2 2-2 2-2-2M70 6l2 2-2 2-2-2m2 6l2 2-2 2-2-2M50 2l2 2-4 4 4 4-2 2-2-2 4-4-4-4M30 2l2 2-4 4 4 4-2 2-2-2 4-4-4-4M10 6l2 2-2 2-2-2m2 6l2 2-2 2-2-2m132 6l2 2-2 2-2-2m2 10l2 2-2 2-2-2m-38-14l2 2-4 4 4 4-4 4 2 2 2-2-4-4 4-4-4-4m-38-2l2 2-2 2-2-2m2 6l2 2-4 4 2 2 2-2-4-4M20 22l2 2-2 2-2-2m2 6l2 2-4 4 2 2 2-2-4-4m102 14l2 2-4 4 2 2 2-2-4-4M80 66l2 2-4 4 2 2 2-2-4-4" fill="#d13"/></svg>