<svg xmlns="http://www.w3.org/2000/svg" viewBox="-1.5 -1.5 123 123" width="246" height="246"><path d="M0 0h120v120H0" fill="#fff"/><path d="M0 60L60 0l60 60-60 60zM0 0l30 30h60m30-30L90 30v60m30 30L90 90H30M0 120l30-30V30" fill="none" stroke="#000"/><path d="M-1.5-1.5h123v123h-123M.5.5v119h119V.5M20 52l2 2-2 2-2-2m-2 2l2 2-4 4 4 4-2 2-2-2 4-4-4-4m10-2l2 2-4 4 4 4-2 2-2-2 4-4-4-4M6 82l2 2-2 2-2-2m10-2l2 2-2 2-2-2m-2 2l2 2-4 4 2 2 2-2-4-4m-2 6l2 2-2 2-2-2m10-2l2 2-2 2-2-2m14 6l2 2-4 4 2 2 2-2-4-4m10-2l2 2-4 4 2 2 2-2-4-4m-2 6l2 2-4 4 2 2 2-2-4-4m28-20l2 2-2 2-2-2m10-2l2 2-2 2-2-2m-2 2l2 2-4 4 4 4-2 2-2-2 4-4-4-4m32 4l2 2-2 2-2-2m-2 2l2 2-4 4 4 4-2 2-2-2 4-4-4-4m10-2l2 2-4 4 4 4-2 2-2-2 4-4-4-4m14-26l2 2-2 2-2-2m10-2l2 2-2 2-2-2m-2 2l2 2-2 2-2-2m-2 2l2 2-2 2-2-2m10-2l2 2-2 2-2-2m-2 2l2 2-2 2-2-2M96 52l2 2-2 2-2-2m10-2l2 2-2 2-2-2m-2 2l2 2-4 4 4 4-2 2-2-2 4-4-4-4m8-36l2 2-4 4 2 2 2-2-4-4m10-2l2 2-4 4 2 2 2-2-4-4m-2 6l2 2-4 4 2 2 2-2-4-4M90 2l2 2-4 4 4 4-2 2-2-2 4-4-4-4m-2 10l2 2-2 2-2-2m10-2l2 2-2 2-2-2m-36-4l2 2-2 2-2-2m10-2l2 2-2 2-2-2m-2 2l2 2-2 2-2-2m-2 2l2 2-4 4 2 2 2-2-4-4m10-2l2 2-4 4 2 2 2-2-4-4M30 2l2 2-4 4 2 2 2-2-4-4m-2 6l2 2-2 2-2-2m10-2l2 2-2 2-2-2m-2 2l2 2-2 2-2-2M6 22l2 2-2 2-2-2m10-2l2 2-2 2-2-2m-2 2l2 2-2 2-2-2m-2 2l2 2-4 4 2 2 2-2-4-4m10-2l2 2-4 4 2 2 2-2-4-4m68 0l2 2-2 2-2-2m-2 2l2 2-2 2-2-2m10-2l2 2-2 2-2-2m-2 2l2 2-2 2-2-2m-2 2l2 2-2 2-2-2m10-2l2 2-2 2-2-2M40 32l2 2-2 2-2-2m-2 2l2 2-4 4 2 2 2-2-4-4m10-2l2 2-4 4 2 2 2-2-4-4m-2 6l2 2-2 2-2-2m18 26l2 2-4 4 2 2 2-2-4-4m10-2l2 2-4 4 2 2 2-2-4-4m-2 6l2 2-4 4 2 2 2-2-4-4"/></svg>