<svg xmlns="http://www.w3.org/2000/svg" viewBox="-1.5 -1.5 123 123"><path d="M0 0h120v120H0" fill="#fff"/><path d="M0 60L60 0l60 60-60 60zM0 0l30 30h60m30-30L90 30v60m30 30L90 90H30M0 120l30-30V30" fill="none" stroke="#000"/><path d="M-1.5-1.5h123v123h-123M0 0v120h120V0M15 53h11l-1 2H14m1 2h11l-1 2H14m1 2h11l-1 2H14m1 2h11l-1 2H14M5 91h11l-1 2H4m21 14h11l-1 2H24m31-8h11l-1 2H54m31 0h11l-1 2H84m21-22h11l-1 2h-11m1 6h11l-1 2h-11m-9-40h11l-1 2H94m1 2h11l-1 2H94m1 6h11l-1 2H94m11-44h11l-1 2h-11M85 11h11l-1 2H84m-29 0h11l-1 2H54m1 10h11l-1 2H54M25 3h11l-1 2H24m1 2h11l-1 2H24m1 6h11l-1 2H24M5 23h11l-1 2H4m1 6h11l-1 2H4m71 4h11l-1 2H74m-39-6h11l-1 2H34m21 46h11l-1 2H54m1 2h11l-1 2H54"/><path d="M10 82l2 2-4 4 2 2 2-2-4-4m2 10l2 2-2 2-2-2m22 6l2 2-2 2-2-2m2 6l2 2-4 4 2 2 2-2-4-4m32-20l2 2-4 4 2 2 2-2-4-4m2 10l2 2-2 2-2-2m32 0l2 2-4 4 4 4-2 2-2-2 4-4-4-4m22-22l2 2-2 2-2-2m2 6l2 2-2 2-2-2m-8-36l2 2-2 2-2-2m12-36l2 2-4 4 4 4-2 2-2-2 4-4-4-4M90 2l2 2-4 4 2 2 2-2-4-4m2 10l2 2-2 2-2-2m-28 0l2 2-4 4 2 2 2-2-4-4m-28-8l2 2-2 2-2-2M10 26l2 2-2 2-2-2m2 6l2 2-2 2-2-2m72-4l2 2-2 2-2-2m2 6l2 2-4 4 2 2 2-2-4-4m-38-6l2 2-4 4 4 4-2 2-2-2 4-4-4-4m22 34l2 2-4 4 2 2 2-2-4-4" fill="#d13"/></svg>