<svg xmlns="http://www.w3.org/2000/svg" viewBox="-1.5 -1.5 123 123"><path d="M0 0h120v120H0" fill="#fff"/><path d="M0 60L60 0l60 60-60 60zM0 0l30 30h60m30-30L90 30v60m30 30L90 90H30M0 120l30-30V30" fill="none" stroke="#000"/><path d="M-1.5-1.5h123v123h-123M0 0v120h120V0M15 61h11l-1 2H14M5 87h11l-1 2H4m1 6h11l-1 2H4m21 14h11l-1 2H24m31-20h11l-1 2H54m1 6h11l-1 2H54m1 2h11l-1 2H54m31 8h11l-1 2H84m21-30h11l-1 2h-11m-9-36h11l-1 2H94m1 6h11l-1 2H94m1 2h11l-1 2H94m11-40h11l-1 2h-11m1 6h11l-1 2h-11M85 3h11l-1 2H84M55 17h11l-1 2H54m1 2h11l-1 2H54M25 3h11l-1 2H24m1 6h11l-1 2H24M5 35h11l-1 2H4m71 8h11l-1 2H74M35 37h11l-1 2H34m21 34h11l-1 2H54m1 6h11l-1 2H54"/><path d="M20 52l2 2-4 4 2 2 2-2-4-4m2 10l2 2-2 2-2-2m-8 16l2 2-2 2-2-2m2 6l2 2-2 2-2-2m22 10l2 2-4 4 2 2 2-2-4-4m2 10l2 2-2 2-2-2m32-20l2 2-2 2-2-2m32 4l2 2-4 4 4 4-2 2-2-2 4-4-4-4m22-22l2 2-2 2-2-2m2 6l2 2-4 4 2 2 2-2-4-4m-8-36l2 2-2 2-2-2m12-36l2 2-2 2-2-2m2 6l2 2-2 2-2-2M90 6l2 2-4 4 4 4-2 2-2-2 4-4-4-4m-28 4l2 2-2 2-2-2m2 10l2 2-2 2-2-2M30 6l2 2-2 2-2-2m2 6l2 2-2 2-2-2m-18 6l2 2-4 4 4 4-2 2-2-2 4-4-4-4m72 8l2 2-4 4 4 4-2 2-2-2 4-4-4-4m-38-2l2 2-2 2-2-2m2 6l2 2-4 4 2 2 2-2-4-4m22 34l2 2-2 2-2-2m2 6l2 2-2 2-2-2" fill="#d13"/></svg>