<svg xmlns="http://www.w3.org/2000/svg" viewBox="-1.5 -1.5 163 83" width="326" height="166"><path d="M0 0h160v80H0" fill="#fff"/><path d="M0 20h160M0 40h160M0 60h160M20 0v20M40 0v40M60 0v20M80 0v60m20-60v20m20-20v40m20-40v20" fill="none" stroke="#000"/><path d="M-1.5-1.5h163v83h-163m2-81v79h159V.5M15 23h11l-1 2H14m1 2h11l-1 2H14m1 2h11l-1 2H14m1 2h11l-1 2H14m21 6h11l-1 2H34M45 7h11l-1 2H44m11 14h11l-1 2H54m11-14h11l-1 2H64m1 2h11l-1 2H64m11 46h11l-1 2H74m1 2h11l-1 2H74M85 3h11l-1 2H84m11 18h11l-1 2H94m1 2h11l-1 2H94m1 2h11l-1 2H94m1 2h11l-1 2H94m11-34h11l-1 2h-11m11 38h11l-1 2h-11m1 6h11l-1 2h-11m1 2h11l-1 2h-11m11-50h11l-1 2h-11m11 14h11l-1 2h-11m1 6h11l-1 2h-11m1 2h11l-1 2h-11m11 34h11l-1 2h-11m1 2h11l-1 2h-11"/><path d="M10 2l2 2-4 4 4 4-4 4 2 2 2-2-4-4 4-4-4-4m22-2l2 2-4 4 4 4-4 4 2 2 2-2-4-4 4-4-4-4m12 42l2 2-4 4 4 4-2 2-2-2 4-4-4-4M50 2l2 2-2 2-2-2m2 6l2 2-4 4 2 2 2-2-4-4m12 14l2 2-4 4 4 4-2 2-2-2 4-4-4-4M70 2l2 2-4 4 2 2 2-2-4-4m12 66l2 2-4 4 2 2 2-2-4-4M90 6l2 2-4 4 4 4-2 2-2-2 4-4-4-4m22-2l2 2-4 4 4 4-2 2-2-2 4-4-4-4m12 38l2 2-2 2-2-2m12-46l2 2-2 2-2-2m2 6l2 2-4 4 2 2 2-2-4-4m12 14l2 2-2 2-2-2m12-26l2 2-4 4 4 4-4 4 2 2 2-2-4-4 4-4-4-4m2 58l2 2-4 4 2 2 2-2-4-4" fill="#d13"/></svg>