<svg xmlns="http://www.w3.org/2000/svg" viewBox="-1.5 -1.5 123 123"><path d="M0 0h120v120H0" fill="#fff"/><path d="M0 60L60 0l60 60-60 60zM0 0l30 30h60m30-30L90 30v60m30 30L90 90H30M0 120l30-30V30" fill="none" stroke="#000"/><path d="M-1.5-1.5h123v123h-123M0 0v120h120V0M15 53h11l-1 2H14m1 2h11l-1 2H14m1 2h11l-1 2H14M5 83h11l-1 2H4m1 2h11l-1 2H4m1 2h11l-1 2H4m21 10h11l-1 2H24m1 6h11l-1 2H24m1 2h11l-1 2H24m31-20h11l-1 2H54m1 2h11l-1 2H54m31 0h11l-1 2H84m1 2h11l-1 2H84m1 2h11l-1 2H84m21-30h11l-1 2h-11m1 2h11l-1 2h-11m1 6h11l-1 2h-11m-9-44h11l-1 2H94m1 2h11l-1 2H94m1 2h11l-1 2H94m1 2h11l-1 2H94m11-36h11l-1 2h-11M85 3h11l-1 2H84m1 2h11l-1 2H84m1 2h11l-1 2H84m1 2h11l-1 2H84m-29 4h11l-1 2H54M25 3h11l-1 2H24m1 2h11l-1 2H24M5 31h11l-1 2H4m71 8h11l-1 2H74m-39 2h11l-1 2H34m21 26h11l-1 2H54m1 2h11l-1 2H54"/><path d="M20 64l2 2-2 2-2-2m-8 28l2 2-2 2-2-2m22 10l2 2-2 2-2-2m32-16l2 2-2 2-2-2m2 10l2 2-2 2-2-2m32 8l2 2-2 2-2-2m22-26l2 2-2 2-2-2m2-70l2 2-4 4 2 2 2-2-4-4m2 10l2 2-2 2-2-2M60 12l2 2-4 4 2 2 2-2-4-4m2 10l2 2-2 2-2-2M30 10l2 2-4 4 2 2 2-2-4-4M10 22l2 2-4 4 2 2 2-2-4-4m2 10l2 2-2 2-2-2m72-4l2 2-4 4 2 2 2-2-4-4m2 10l2 2-2 2-2-2M40 32l2 2-4 4 4 4-2 2-2-2 4-4-4-4m22 46l2 2-4 4 2 2 2-2-4-4" fill="#d13"/></svg>