<svg xmlns="http://www.w3.org/2000/svg" viewBox="-1.5 -1.5 163 83" width="326" height="166"><path d="M0 0h160v80H0" fill="#fff"/><path d="M0 20h160M0 40h160M0 60h160M20 0v20M40 0v40M60 0v20M80 0v60m20-60v20m20-20v40m20-40v20" fill="none" stroke="#000"/><path d="M-1.5-1.5h163v83h-163m2-81v79h159V.5M6 6l2 2-2 2-2-2m2 6l2 2-2 2-2-2m6-14l2 2-2 2-2-2m2 6l2 2-2 2-2-2m6-6l2 2-2 2-2-2m2 6l2 2-2 2-2-2m4 10l2 2-4 4 4 4-2 2-2-2 4-4-4-4m6-6l2 2-2 2-2-2m6 2l2 2-4 4 4 4-2 2-2-2 4-4-4-4m4-26l2 2-4 4 2 2 2-2-4-4m2 10l2 2-2 2-2-2m6-6l2 2-2 2-2-2m6-10l2 2-4 4 2 2 2-2-4-4m2 10l2 2-2 2-2-2m4 26l2 2-4 4 4 4-2 2-2-2 4-4-4-4m6 10l2 2-2 2-2-2m6-14l2 2-4 4 4 4-2 2-2-2 4-4-4-4m4-38l2 2-2 2-2-2m6-6l2 2-2 2-2-2m2 6l2 2-4 4 2 2 2-2-4-4m6-6l2 2-2 2-2-2m4 18l2 2-4 4 2 2 2-2-4-4m6-6l2 2-2 2-2-2m2 10l2 2-2 2-2-2m6-10l2 2-4 4 2 2 2-2-4-4m4-26l2 2-4 4 2 2 2-2-4-4m2 10l2 2-2 2-2-2m6-6l2 2-2 2-2-2m6-10l2 2-4 4 2 2 2-2-4-4m2 10l2 2-2 2-2-2m8 46l2 2-4 4 4 4-4 4 2 2 2-2-4-4 4-4-4-4m8-62l2 2-2 2-2-2m2 6l2 2-4 4 2 2 2-2-4-4m6-6l2 2-2 2-2-2m6-6l2 2-2 2-2-2m2 6l2 2-4 4 2 2 2-2-4-4m4 14l2 2-2 2-2-2m6-6l2 2-2 2-2-2m2 6l2 2-4 4 2 2 2-2-4-4m6-6l2 2-2 2-2-2m8-26l2 2-4 4 4 4-4 4 2 2 2-2-4-4 4-4-4-4m8 50l2 2-2 2-2-2m6-14l2 2-4 4 4 4-2 2-2-2 4-4-4-4m6 10l2 2-2 2-2-2m4-54l2 2-4 4 4 4-4 4 2 2 2-2-4-4 4-4-4-4m10-2l2 2-4 4 4 4-4 4 2 2 2-2-4-4 4-4-4-4m4 18l2 2-2 2-2-2m2 6l2 2-2 2-2-2m6-6l2 2-2 2-2-2m2 6l2 2-2 2-2-2m6-14l2 2-2 2-2-2m2 6l2 2-2 2-2-2m4-30l2 2-2 2-2-2m2 6l2 2-2 2-2-2m2 54l2 2-2 2-2-2m2 6l2 2-2 2-2-2m6-70l2 2-2 2-2-2m2 6l2 2-2 2-2-2m2 46l2 2-2 2-2-2m2 6l2 2-2 2-2-2m6-70l2 2-2 2-2-2m2 6l2 2-2 2-2-2m2 54l2 2-2 2-2-2m2 6l2 2-2 2-2-2"/></svg>