<svg xmlns="http://www.w3.org/2000/svg" viewBox="-1.5 -1.5 163 83" width="326" height="166"><path d="M0 0h160v80H0" fill="#fff"/><path d="M0 20h160M0 40h160M0 60h160M20 0v20M40 0v40M60 0v20M80 0v60m20-60v20m20-20v40m20-40v20" fill="none" stroke="#000"/><path d="M-1.5-1.5h163v83h-163m2-81v79h159V.5M5 3h11l-1 2H4m11 22h11l-1 2H14m11-18h11l-1 2H24m1 2h11l-1 2H24m11 30h11l-1 2H34M45 7h11l-1 2H44m1 2h11l-1 2H44m11 10h11l-1 2H54m1 2h11l-1 2H54m1 2h11l-1 2H54m1 2h11l-1 2H54M65 7h11l-1 2H64m1 2h11l-1 2H64m11 54h11l-1 2H74m1 6h11l-1 2H74m11-66h11l-1 2H84m11 18h11l-1 2H94m1 2h11l-1 2H94m11-34h11l-1 2h-11m1 2h11l-1 2h-11m1 2h11l-1 2h-11m11 30h11l-1 2h-11m1 2h11l-1 2h-11m1 2h11l-1 2h-11m11-50h11l-1 2h-11m1 2h11l-1 2h-11m11 22h11l-1 2h-11m11-18h11l-1 2h-11m1 46h11l-1 2h-11m1 6h11l-1 2h-11m1 2h11l-1 2h-11"/><path d="M10 6l2 2-4 4 4 4-2 2-2-2 4-4-4-4m12 14l2 2-2 2-2-2m2 6l2 2-4 4 2 2 2-2-4-4M30 2l2 2-4 4 2 2 2-2-4-4m12 38l2 2-2 2-2-2m2 6l2 2-4 4 2 2 2-2-4-4M50 2l2 2-2 2-2-2m2 10l2 2-2 2-2-2M70 2l2 2-2 2-2-2m2 10l2 2-2 2-2-2m12 46l2 2-2 2-2-2m2 6l2 2-2 2-2-2M90 2l2 2-4 4 2 2 2-2-4-4m2 10l2 2-2 2-2-2m12 6l2 2-4 4 2 2 2-2-4-4m12-10l2 2-2 2-2-2m12 38l2 2-2 2-2-2m12-46l2 2-4 4 2 2 2-2-4-4m12 10l2 2-4 4 2 2 2-2-4-4m2 10l2 2-2 2-2-2m12-34l2 2-4 4 4 4-2 2-2-2 4-4-4-4m2 62l2 2-2 2-2-2" fill="#d13"/></svg>