<svg xmlns="http://www.w3.org/2000/svg" viewBox="-1.5 -1.5 163 83" width="326" height="166"><path d="M0 0h160v80H0" fill="#fff"/><path d="M0 20h160M0 40h160M0 60h160M20 0v20M40 0v40M60 0v20M80 0v60m20-60v20m20-20v40m20-40v20" fill="none" stroke="#000"/><path d="M-1.5-1.5h163v83h-163m2-81v79h159V.5"/><g fill="#f77"><circle cx="150" cy="3.625" r="1.625"/><circle cx="127.5" cy="3.625" r="1.625"/><circle cx="132.5" cy="3.625" r="1.625"/><circle cx="110" cy="3.625" r="1.625"/><circle cx="87.5" cy="3.625" r="1.625"/><circle cx="92.5" cy="3.625" r="1.625"/><circle cx="70" cy="3.625" r="1.625"/><circle cx="47.5" cy="3.625" r="1.625"/><circle cx="52.5" cy="3.625" r="1.625"/><circle cx="27.5" cy="3.625" r="1.625"/><circle cx="32.5" cy="3.625" r="1.625"/><circle cx="10" cy="3.625" r="1.625"/><circle cx="140" cy="23.625" r="1.625"/><circle cx="100" cy="23.625" r="1.625"/><circle cx="60" cy="23.625" r="1.625"/><circle cx="20" cy="23.625" r="1.625"/><circle cx="117.5" cy="43.625" r="1.625"/><circle cx="122.5" cy="43.625" r="1.625"/><circle cx="37.5" cy="43.625" r="1.625"/><circle cx="42.5" cy="43.625" r="1.625"/><circle cx="77.5" cy="63.625" r="1.625"/><circle cx="82.5" cy="63.625" r="1.625"/></g><g fill="#fd4"><circle cx="147.5" cy="7.875" r="1.625"/><circle cx="152.5" cy="7.875" r="1.625"/><circle cx="127.5" cy="7.875" r="1.625"/><circle cx="132.5" cy="7.875" r="1.625"/><circle cx="107.5" cy="7.875" r="1.625"/><circle cx="112.5" cy="7.875" r="1.625"/><circle cx="87.5" cy="7.875" r="1.625"/><circle cx="92.5" cy="7.875" r="1.625"/><circle cx="67.5" cy="7.875" r="1.625"/><circle cx="72.5" cy="7.875" r="1.625"/><circle cx="47.5" cy="7.875" r="1.625"/><circle cx="52.5" cy="7.875" r="1.625"/><circle cx="30" cy="7.875" r="1.625"/><circle cx="10" cy="7.875" r="1.625"/><circle cx="137.5" cy="27.875" r="1.625"/><circle cx="142.5" cy="27.875" r="1.625"/><circle cx="97.5" cy="27.875" r="1.625"/><circle cx="102.5" cy="27.875" r="1.625"/><circle cx="57.5" cy="27.875" r="1.625"/><circle cx="62.5" cy="27.875" r="1.625"/><circle cx="17.5" cy="27.875" r="1.625"/><circle cx="22.5" cy="27.875" r="1.625"/><circle cx="117.5" cy="47.875" r="1.625"/><circle cx="122.5" cy="47.875" r="1.625"/><circle cx="37.5" cy="47.875" r="1.625"/><circle cx="42.5" cy="47.875" r="1.625"/><circle cx="77.5" cy="67.875" r="1.625"/><circle cx="82.5" cy="67.875" r="1.625"/></g><g fill="#7ae"><circle cx="147.5" cy="12.125" r="1.625"/><circle cx="152.5" cy="12.125" r="1.625"/><circle cx="130" cy="12.125" r="1.625"/><circle cx="110" cy="12.125" r="1.625"/><circle cx="90" cy="12.125" r="1.625"/><circle cx="70" cy="12.125" r="1.625"/><circle cx="47.5" cy="12.125" r="1.625"/><circle cx="52.5" cy="12.125" r="1.625"/><circle cx="30" cy="12.125" r="1.625"/><circle cx="10" cy="12.125" r="1.625"/><circle cx="140" cy="32.125" r="1.625"/><circle cx="97.5" cy="32.125" r="1.625"/><circle cx="102.5" cy="32.125" r="1.625"/><circle cx="60" cy="32.125" r="1.625"/><circle cx="17.5" cy="32.125" r="1.625"/><circle cx="22.5" cy="32.125" r="1.625"/><circle cx="120" cy="52.125" r="1.625"/><circle cx="40" cy="52.125" r="1.625"/><circle cx="77.5" cy="72.125" r="1.625"/><circle cx="82.5" cy="72.125" r="1.625"/></g><g fill="#ac5"><circle cx="150" cy="16.375" r="1.625"/><circle cx="130" cy="16.375" r="1.625"/><circle cx="110" cy="16.375" r="1.625"/><circle cx="87.5" cy="16.375" r="1.625"/><circle cx="92.5" cy="16.375" r="1.625"/><circle cx="67.5" cy="16.375" r="1.625"/><circle cx="72.5" cy="16.375" r="1.625"/><circle cx="47.5" cy="16.375" r="1.625"/><circle cx="52.5" cy="16.375" r="1.625"/><circle cx="30" cy="16.375" r="1.625"/><circle cx="7.5" cy="16.375" r="1.625"/><circle cx="12.5" cy="16.375" r="1.625"/><circle cx="137.5" cy="36.375" r="1.625"/><circle cx="142.5" cy="36.375" r="1.625"/><circle cx="100" cy="36.375" r="1.625"/><circle cx="57.5" cy="36.375" r="1.625"/><circle cx="62.5" cy="36.375" r="1.625"/><circle cx="20" cy="36.375" r="1.625"/><circle cx="120" cy="56.375" r="1.625"/><circle cx="40" cy="56.375" r="1.625"/><circle cx="77.5" cy="76.375" r="1.625"/><circle cx="82.5" cy="76.375" r="1.625"/></g></svg>