<svg xmlns="http://www.w3.org/2000/svg" viewBox="-1.5 -1.5 123 123"><path d="M0 0h120v120H0" fill="#fff"/><path d="M0 60L60 0l60 60-60 60zM0 0l30 30h60m30-30L90 30v60m30 30L90 90H30M0 120l30-30V30" fill="none" stroke="#000"/><path d="M-1.5-1.5h123v123h-123M.5.5v119h119V.5M5 87h11l-1 2H4m1 6h11l-1 2H4m21 6h11l-1 2H24m1 2h11l-1 2H24m1 2h11l-1 2H24m1 2h11l-1 2H24m31-16h11l-1 2H54m31 8h11l-1 2H84m21-26h11l-1 2h-11m1 2h11l-1 2h-11m-9-32h11l-1 2H94m1 2h11l-1 2H94m11-40h11l-1 2h-11m1 2h11l-1 2h-11M85 3h11l-1 2H84m1 6h11l-1 2H84m-29 8h11l-1 2H54M25 3h11l-1 2H24m1 6h11l-1 2H24m1 2h11l-1 2H24M5 23h11l-1 2H4m1 6h11l-1 2H4m71 4h11l-1 2H74m1 2h11l-1 2H74m1 2h11l-1 2H74M35 33h11l-1 2H34m1 2h11l-1 2H34m1 2h11l-1 2H34m21 34h11l-1 2H54m1 2h11l-1 2H54"/><path d="M20 52l2 2-4 4 4 4-4 4 2 2 2-2-4-4 4-4-4-4m-8 28l2 2-2 2-2-2m2 6l2 2-2 2-2-2m52 0l2 2-4 4 2 2 2-2-4-4m2 10l2 2-2 2-2-2m32-4l2 2-4 4 2 2 2-2-4-4m2 10l2 2-2 2-2-2m22-34l2 2-2 2-2-2m2 10l2 2-2 2-2-2m-8-44l2 2-4 4 2 2 2-2-4-4m12-32l2 2-2 2-2-2m2 10l2 2-2 2-2-2M90 6l2 2-2 2-2-2m2 6l2 2-2 2-2-2m-28-4l2 2-4 4 2 2 2-2-4-4m2 10l2 2-2 2-2-2M30 6l2 2-2 2-2-2M10 26l2 2-2 2-2-2m2 6l2 2-2 2-2-2m72-4l2 2-2 2-2-2M40 44l2 2-2 2-2-2m22 26l2 2-2 2-2-2m2 10l2 2-2 2-2-2" fill="#d13"/></svg>