<svg xmlns="http://www.w3.org/2000/svg" viewBox="-1.5 -1.5 123 123" width="246" height="246"><path d="M0 0h120v120H0" fill="#fff"/><path d="M0 60L60 0l60 60-60 60zM0 0l30 30h60m30-30L90 30v60m30 30L90 90H30M0 120l30-30V30" fill="none" stroke="#000"/><path d="M-1.5-1.5h123v123h-123M.5.5v119h119V.5M15 57h11l-1 2H14m1 6h11l-1 2H14M5 83h11l-1 2H4m1 10h11l-1 2H4m21 6h11l-1 2H24m1 2h11l-1 2H24m1 6h11l-1 2H24m31-24h11l-1 2H54m1 2h11l-1 2H54m1 2h11l-1 2H54m1 2h11l-1 2H54m31 0h11l-1 2H84m1 2h11l-1 2H84m1 2h11l-1 2H84m21-34h11l-1 2h-11m1 6h11l-1 2h-11m1 2h11l-1 2h-11m-9-32h11l-1 2H94m11-44h11l-1 2h-11m1 2h11l-1 2h-11m1 2h11l-1 2h-11m1 2h11l-1 2h-11M85 11h11l-1 2H84m1 2h11l-1 2H84m-29-4h11l-1 2H54m1 2h11l-1 2H54m1 6h11l-1 2H54M25 11h11l-1 2H24m1 2h11l-1 2H24M5 35h11l-1 2H4m71 8h11l-1 2H74M35 33h11l-1 2H34m1 2h11l-1 2H34m1 6h11l-1 2H34m21 34h11l-1 2H54m1 2h11l-1 2H54"/><path d="M20 52l2 2-2 2-2-2m2 6l2 2-2 2-2-2m-8 24l2 2-4 4 2 2 2-2-4-4m22 22l2 2-2 2-2-2m62-10l2 2-2 2-2-2m22-18l2 2-2 2-2-2m-8-36l2 2-4 4 4 4-2 2-2-2 4-4-4-4M90 2l2 2-4 4 2 2 2-2-4-4M60 20l2 2-2 2-2-2M30 2l2 2-4 4 2 2 2-2-4-4M10 22l2 2-4 4 4 4-2 2-2-2 4-4-4-4m72 8l2 2-4 4 4 4-2 2-2-2 4-4-4-4m-38 6l2 2-2 2-2-2m22 30l2 2-4 4 2 2 2-2-4-4" fill="#d13"/></svg>