<svg xmlns="http://www.w3.org/2000/svg" viewBox="-1.5 -1.5 163 83"><path d="M0 0h160v80H0" fill="#fff"/><path d="M0 20h160M0 40h160M0 60h160M20 0v20M40 0v40M60 0v20M80 0v60m20-60v20m20-20v40m20-40v20" fill="none" stroke="#000"/><path d="M-1.5-1.5h163v83h-163m2-81v79h159V.5M145 3h11l-1 2h-11m1 6h11l-1 2h-11m1 2h11l-1 2h-11M125 7h11l-1 2h-11M85 3h11l-1 2H84M65 3h11l-1 2H64m1 10h11l-1 2H64M45 7h11l-1 2H44M25 3h11l-1 2H24M5 3h11l-1 2H4m91 22h11l-1 2H94m1 2h11l-1 2H94m1 2h11l-1 2H94m-39-6h11l-1 2H54M15 23h11l-1 2H14m1 2h11l-1 2H14m1 2h11l-1 2H14m1 2h11l-1 2H14m101 6h11l-1 2h-11m-79 6h11l-1 2H34m41 14h11l-1 2H74m1 6h11l-1 2H74"/><path d="M150 6l2 2-2 2-2-2m-18-6l2 2-2 2-2-2m2 6l2 2-4 4 2 2 2-2-4-4M110 2l2 2-4 4 4 4-4 4 2 2 2-2-4-4 4-4-4-4M90 6l2 2-4 4 4 4-2 2-2-2 4-4-4-4M70 6l2 2-4 4 2 2 2-2-4-4M50 2l2 2-2 2-2-2m2 6l2 2-4 4 2 2 2-2-4-4M30 6l2 2-4 4 4 4-2 2-2-2 4-4-4-4M10 6l2 2-4 4 4 4-2 2-2-2 4-4-4-4m132 14l2 2-4 4 4 4-4 4 2 2 2-2-4-4 4-4-4-4m-38-2l2 2-2 2-2-2m-38-2l2 2-4 4 2 2 2-2-4-4m2 10l2 2-2 2-2-2m62 10l2 2-4 4 4 4-2 2-2-2 4-4-4-4m-78-6l2 2-4 4 2 2 2-2-4-4m2 10l2 2-2 2-2-2m42 6l2 2-2 2-2-2m2 6l2 2-2 2-2-2" fill="#d13"/></svg>