<svg xmlns="http://www.w3.org/2000/svg" viewBox="-1.5 -1.5 163 83"><path d="M0 0h160v80H0" fill="#fff"/><path d="M0 20h160M0 40h160M0 60h160M20 0v20M40 0v40M60 0v20M80 0v60m20-60v20m20-20v40m20-40v20" fill="none" stroke="#000"/><path d="M-1.5-1.5h163v83h-163M0 0v80h160V0m-15 15h11l-1 2h-11m-19-6h11l-1 2h-11M105 3h11l-1 2h-11m1 6h11l-1 2h-11M85 7h11l-1 2H84m1 2h11l-1 2H84m1 2h11l-1 2H84m-19-6h11l-1 2H64m-19 2h11l-1 2H44M25 7h11l-1 2H24m1 2h11l-1 2H24m1 2h11l-1 2H24M5 3h11l-1 2H4m1 10h11l-1 2H4m131 6h11l-1 2h-11m1 2h11l-1 2h-11m-39 2h11l-1 2H94M55 23h11l-1 2H54m1 2h11l-1 2H54m-39 6h11l-1 2H14m101 18h11l-1 2h-11m-79-6h11l-1 2H34m41 10h11l-1 2H74m1 2h11l-1 2H74"/><path d="M150 2l2 2-4 4 4 4-2 2-2-2 4-4-4-4m-18-2l2 2-4 4 2 2 2-2-4-4m2 10l2 2-2 2-2-2M110 6l2 2-2 2-2-2m2 6l2 2-2 2-2-2M90 2l2 2-2 2-2-2M70 2l2 2-4 4 2 2 2-2-4-4m2 10l2 2-2 2-2-2M50 2l2 2-4 4 4 4-2 2-2-2 4-4-4-4M30 2l2 2-2 2-2-2M10 6l2 2-4 4 2 2 2-2-4-4m132 22l2 2-4 4 2 2 2-2-4-4m-38-10l2 2-4 4 2 2 2-2-4-4m2 10l2 2-2 2-2-2m-38-6l2 2-4 4 2 2 2-2-4-4M20 22l2 2-4 4 4 4-2 2-2-2 4-4-4-4m102 18l2 2-4 4 4 4-2 2-2-2 4-4-4-4m-78-2l2 2-4 4 2 2 2-2-4-4m2 10l2 2-2 2-2-2m42 14l2 2-4 4 2 2 2-2-4-4" fill="#d13"/></svg>