<svg xmlns="http://www.w3.org/2000/svg" viewBox="-1.5 -1.5 163 83" width="326" height="166"><path d="M0 0h160v80H0" fill="#fff"/><path d="M0 20h160M0 40h160M0 60h160M20 0v20M40 0v40M60 0v20M80 0v60m20-60v20m20-20v40m20-40v20" fill="none" stroke="#000"/><path d="M-1.5-1.5h163v83h-163m2-81v79h159V.5M146 2l2 2-2 2-2-2m10-2l2 2-2 2-2-2m-2 2l2 2-2 2-2-2m-2 2l2 2-4 4 2 2 2-2-4-4m10-2l2 2-4 4 2 2 2-2-4-4M130 2l2 2-4 4 2 2 2-2-4-4m-2 6l2 2-4 4 2 2 2-2-4-4m10-2l2 2-4 4 2 2 2-2-4-4M106 2l2 2-4 4 2 2 2-2-4-4m10-2l2 2-4 4 2 2 2-2-4-4m-2 6l2 2-2 2-2-2m-2 2l2 2-2 2-2-2m10-2l2 2-2 2-2-2M86 2l2 2-2 2-2-2m10-2l2 2-2 2-2-2m-2 2l2 2-2 2-2-2m-2 2l2 2-4 4 2 2 2-2-4-4m10-2l2 2-4 4 2 2 2-2-4-4M66 2l2 2-2 2-2-2m10-2l2 2-2 2-2-2m-2 2l2 2-2 2-2-2m-2 2l2 2-4 4 2 2 2-2-4-4m10-2l2 2-4 4 2 2 2-2-4-4M50 2l2 2-4 4 2 2 2-2-4-4m-2 6l2 2-2 2-2-2m10-2l2 2-2 2-2-2m-2 2l2 2-2 2-2-2M26 2l2 2-4 4 2 2 2-2-4-4m10-2l2 2-4 4 2 2 2-2-4-4m-2 6l2 2-2 2-2-2m-2 2l2 2-2 2-2-2m10-2l2 2-2 2-2-2M6 2l2 2-4 4 4 4-4 4 2 2 2-2-4-4 4-4-4-4m10-2l2 2-4 4 4 4-4 4 2 2 2-2-4-4 4-4-4-4m128 18l2 2-2 2-2-2m-2 2l2 2-4 4 4 4-2 2-2-2 4-4-4-4m10-2l2 2-4 4 4 4-2 2-2-2 4-4-4-4m-46-6l2 2-2 2-2-2m10-2l2 2-2 2-2-2m-2 2l2 2-4 4 2 2 2-2-4-4m-2 6l2 2-2 2-2-2m10-2l2 2-2 2-2-2M60 22l2 2-2 2-2-2m-2 2l2 2-4 4 2 2 2-2-4-4m10-2l2 2-4 4 2 2 2-2-4-4m-2 6l2 2-2 2-2-2M16 22l2 2-4 4 2 2 2-2-4-4m10-2l2 2-4 4 2 2 2-2-4-4m-2 6l2 2-2 2-2-2m-2 2l2 2-2 2-2-2m10-2l2 2-2 2-2-2m98 6l2 2-4 4 4 4-2 2-2-2 4-4-4-4m-2 10l2 2-2 2-2-2m10-2l2 2-2 2-2-2M40 42l2 2-2 2-2-2m-2 2l2 2-2 2-2-2m10-2l2 2-2 2-2-2m-2 2l2 2-4 4 2 2 2-2-4-4m38 10l2 2-2 2-2-2m10-2l2 2-2 2-2-2m-2 2l2 2-2 2-2-2m-2 2l2 2-2 2-2-2m10-2l2 2-2 2-2-2m-2 2l2 2-2 2-2-2m68-14l2 2-4 4 4 4-2 2-2-2 4-4-4-4m10-2l2 2-4 4 4 4-2 2-2-2 4-4-4-4m-2 10l2 2-2 2-2-2"/></svg>